<?xml version="1.0" encoding="UTF-8"?><svg id="b" xmlns="http://www.w3.org/2000/svg" width="1844" height="965.28" viewBox="0 100 1844 700"><g id="c"><path d="M287.65,753.33c-3.62-30.76-5.45-63.3-5.45-96.74,0-69.75,8-135.31,22.53-184.61,14.42-48.92,33.42-75.86,53.51-75.86,36.11,0,67.46,87.99,74.56,209.26-6.43,21.35-16.03,41.56-28.56,60.12.02-2.96.03-5.93.03-8.91,0-7.97-.07-16.01-.2-23.91,0-.1-.02-.2-.05-.29l-44.89-138.63c-.14-.42-.52-.7-.96-.7h0c-.44,0-.83.28-.96.7l-44.75,138.8c-.03.09-.05.19-.05.29-.13,7.9-.2,15.88-.2,23.73,0,29.54.91,58.44,2.71,85.9-8.82,4.2-17.98,7.84-27.27,10.84ZM353.73,479.35c-.39,0-.75.23-.92.59l-37.2,81.61c-.05.11-.08.23-.09.35-.67,9.17-1.24,18.56-1.7,27.92-.02.49.31.93.8,1.04.07.02.14.02.21.02.41,0,.79-.25.94-.64l40.82-103.59c.09-.22.09-.46.02-.68l-1.91-5.91c-.13-.4-.49-.67-.9-.7-.02,0-.04,0-.06,0ZM362.56,479.28c-.42.02-.78.3-.9.7l-1.94,6c-.07.22-.06.46.02.68l40.97,103.56c.16.39.53.64.94.64.07,0,.14,0,.21-.02.48-.1.82-.54.8-1.04-.47-9.45-1.04-18.79-1.69-27.78,0-.12-.04-.24-.09-.35l-37.34-81.8c-.16-.36-.53-.59-.92-.59-.02,0-.04,0-.06,0ZM366.27,467.57c-.39.05-.72.32-.84.69l-1.53,4.73c-.09.27-.06.56.08.8l32.46,58.78c.18.33.52.52.89.52.1,0,.2-.02.3-.05.46-.14.75-.59.7-1.07-.6-5.83-1.26-11.67-1.96-17.33-.03-.21-.12-.4-.25-.56l-28.87-46.05c-.19-.3-.51-.47-.86-.47-.04,0-.08,0-.13,0ZM349.97,467.72c-.35,0-.67.18-.86.47l-28.86,46.03c-.08.13-.13.27-.15.41-.69,5.58-1.34,11.36-1.94,17.18-.05.48.24.93.7,1.07.1.03.2.05.3.05.36,0,.7-.19.89-.52l32.3-58.56c.13-.24.16-.53.08-.8l-1.5-4.63c-.12-.37-.45-.64-.84-.69-.04,0-.08,0-.12,0ZM367.12,463.03c-.1.31-.05.64.14.91l24.98,34.33c.19.27.5.42.82.42.13,0,.26-.02.38-.08.43-.18.69-.62.62-1.08-4.04-27.43-9.18-50.25-14.88-66-.11-.3-.35-.52-.63-.62l.07-.17c.09-.23.09-.49,0-.72-.17-.47-.35-.93-.53-1.39-.1-.24-.28-.44-.51-.55.09-.24.09-.5,0-.74-.12-.32-.25-.63-.38-.94-.08-.2-.23-.37-.41-.48.05-.2.04-.42-.05-.62-5.74-13.57-11.97-20.46-18.51-20.46s-12.77,6.88-18.51,20.45c-.09.21-.1.43-.05.64-.19.11-.34.28-.42.49l-.43,1.07c-.09.24-.09.51,0,.74-.23.11-.41.3-.51.55-.2.51-.39,1.03-.59,1.55-.09.23-.09.49,0,.73l.07.18c-.29.1-.53.32-.63.62-5.72,15.94-10.69,38.03-14.76,65.64-.07.46.19.91.62,1.08.12.05.25.08.38.08.32,0,.62-.15.82-.42l24.85-34.14c.19-.26.24-.6.14-.91l-5.52-17.04,5.82,14.7c.14.34.45.58.81.63.04,0,.09,0,.13,0,.32,0,.63-.15.82-.42l1.91-2.62c.22-.3.25-.68.1-1.02l-7.88-17.27,8.33,15.09c.17.3.48.5.82.52.02,0,.04,0,.06,0,.32,0,.63-.15.82-.42l1.67-2.29c.24-.33.26-.78.04-1.13l-8.54-13.62,8.8,12.09c.19.26.49.42.82.42s.63-.15.82-.42l8.8-12.08-8.53,13.61c-.22.35-.2.8.04,1.13l1.61,2.21c.19.26.5.42.82.42.02,0,.04,0,.06,0,.34-.02.66-.22.82-.52l8.36-15.16-7.91,17.35c-.15.33-.11.72.1,1.01l1.84,2.54c.19.26.5.42.82.42.04,0,.09,0,.13,0,.37-.05.68-.29.81-.63l5.85-14.85-5.54,17.2ZM358.19,469.58c-.4,0-.76.23-.92.59l-1.99,4.36c-.11.25-.12.54-.02.79l1.96,4.95c.15.39.53.64.94.64.42,0,.79-.25.94-.64l1.99-5.04c.1-.26.09-.54-.02-.79l-1.95-4.28c-.16-.36-.52-.59-.92-.59ZM354.24,460.91c-.35,0-.67.18-.86.47l-1.96,3.12c-.17.27-.2.61-.08.91l1.58,3.99c.14.36.49.61.88.64.02,0,.04,0,.06,0,.37,0,.71-.2.89-.52l1.98-3.59c.15-.28.17-.62.03-.91l-1.6-3.51c-.15-.34-.48-.56-.85-.59-.02,0-.04,0-.07,0ZM362.11,460.83c-.37.02-.7.25-.85.59l-1.64,3.61c-.13.29-.12.63.04.91l1.94,3.51c.18.32.52.52.88.52.02,0,.04,0,.07,0,.39-.03.73-.27.88-.64l1.61-4.08c.12-.3.09-.64-.08-.91l-1.9-3.03c-.19-.3-.51-.47-.86-.47-.02,0-.04,0-.07,0ZM358.23,454.54c-.35,0-.67.18-.86.47l-1.68,2.68c-.2.31-.21.7-.03,1.03l1.63,2.95c.18.32.52.52.89.52s.71-.2.89-.52l1.68-3.04c.18-.32.17-.71-.03-1.03l-1.62-2.59c-.18-.3-.51-.47-.86-.47h0Z" fill="#c9bd93"/><path d="M622.93,251.28l-78.29,92.56v158.28h141.92v-74.87l-63.62-175.97ZM675.3,494.05l-52.37-94.73v-121.81l52.37,148.2v68.34Z" fill="#2c6daf"/><polygon points="675.3 425.71 675.3 494.05 622.93 399.32 622.93 277.51 675.3 425.71" fill="#ada783"/><rect x="76.42" y="134.81" width="56.84" height="56.84" transform="translate(-84.71 121.94) rotate(-45)" fill="#2c6daf"/><rect x="156.8" y="134.81" width="56.84" height="56.84" transform="translate(-61.17 178.77) rotate(-45)" fill="#2c6daf"/><polygon points="185.22 123.04 145.02 163.23 104.83 123.04 185.22 123.04" fill="#c9bd93"/><path d="M258.47,123.04c-.16,2.39-.37,4.76-.68,7.1-.04.28-.07.55-.11.82l-32.27,32.27-40.19-40.19h73.25Z" fill="#ada783"/><path d="M104.83,123.04l-40.19,40.19-31.05-31.05c-.02-.13-.04-.26-.06-.4,0-.01,0-.03,0-.04-.41-2.86-.71-5.77-.9-8.7h72.2Z" fill="#ada783"/><path d="M185.22,203.42l-24.37,24.37c-.22.04-.46.07-.68.1-.01,0-.03,0-.05,0-4.77.61-9.63.93-14.57.93-5.49,0-10.89-.39-16.17-1.15h-.03c-.1-.01-.21-.03-.31-.04l-24.2-24.2h80.38Z" fill="#ada783"/><rect x="76.42" y="54.43" width="56.84" height="56.84" transform="translate(-27.87 98.39) rotate(-45)" fill="#2c6daf"/><rect x="156.8" y="54.43" width="56.84" height="56.84" transform="translate(-4.33 155.23) rotate(-45)" fill="#2c6daf"/><path d="M257.68,130.95c-2.31,17.17-8.49,33.11-17.61,46.93l-14.66-14.66,32.27-32.27Z" fill="#2c6daf"/><path d="M258.71,115.66v.49l-33.3-33.3,20.16-20.16c8.39,15.8,13.14,33.83,13.14,52.98Z" fill="#2c6daf"/><path d="M64.64,163.23l-14.03,14.03c-8.67-13.35-14.61-28.64-17.01-45.08l31.05,31.05Z" fill="#2c6daf"/><path d="M64.64,82.85l-32.25,32.25c.09-18.66,4.7-36.24,12.78-51.72l19.47,19.47Z" fill="#2c6daf"/><path d="M144.98,2.51l-40.15,40.15-21.52-21.52C100.94,9.52,122,2.69,144.65,2.52c.11,0,.22,0,.33,0Z" fill="#2c6daf"/><path d="M207.14,20.73l-21.92,21.92L145.07,2.51h.48c22.68,0,43.8,6.67,61.51,18.16.03.01.05.04.08.06Z" fill="#2c6daf"/><path d="M129.04,227.62c-8.28-1.21-16.27-3.32-23.87-6.22-4.34-1.65-8.54-3.57-12.59-5.73l12.26-12.26,24.2,24.2Z" fill="#2c6daf"/><path d="M197.83,216.03s0,0,0,0c-3.84,2.01-7.81,3.81-11.9,5.36-7.96,3.04-16.36,5.21-25.08,6.39l24.37-24.37,12.61,12.61Z" fill="#2c6daf"/><path d="M104.83,42.66l-40.19,40.19-19.47-19.47s.03-.05.04-.08c.55-1.06,1.13-2.12,1.72-3.16.25-.45.51-.9.77-1.34.29-.5.58-1,.88-1.5.3-.49.6-.97.9-1.46.16-.28.34-.55.52-.82.22-.34.43-.68.66-1.02.32-.5.66-1,.99-1.5.34-.5.68-1,1.02-1.5.29-.42.59-.84.89-1.25.3-.42.6-.82.9-1.23.2-.28.4-.55.61-.82.2-.28.4-.55.61-.81.19-.25.37-.49.57-.73.07-.09.13-.17.2-.26.16-.2.32-.41.49-.61.31-.4.63-.79.95-1.18.1-.11.19-.23.28-.34.27-.33.54-.65.81-.97h.01c.17-.22.36-.43.54-.64.26-.31.52-.61.79-.92.26-.31.53-.61.81-.91.54-.61,1.08-1.2,1.64-1.79.4-.43.81-.87,1.22-1.29,0,0,.01,0,.01-.01.41-.43.82-.84,1.24-1.26.41-.42.82-.83,1.24-1.24l.02-.02c.65-.63,1.31-1.25,1.97-1.86.32-.31.65-.61.98-.9.67-.61,1.35-1.21,2.03-1.8.34-.29.69-.59,1.03-.88.34-.29.69-.58,1.04-.87.7-.58,1.41-1.14,2.12-1.7.36-.28.71-.56,1.08-.84.36-.28.72-.55,1.08-.82.36-.27.73-.54,1.09-.81.73-.53,1.47-1.06,2.22-1.58.37-.25.75-.52,1.12-.77.31-.2.61-.41.92-.62.04-.02.07-.05.11-.07l21.52,21.52Z" fill="#c9bd93"/><path d="M245.56,62.69l-20.16,20.16-40.19-40.19,21.92-21.92c.94.61,1.88,1.23,2.8,1.87.57.4,1.13.79,1.69,1.2.43.32.87.64,1.31.96.48.36.95.72,1.43,1.08.47.36.94.73,1.41,1.1.47.37.93.74,1.39,1.11.57.46,1.14.93,1.7,1.42.22.19.45.38.67.58.58.49,1.14.99,1.7,1.5.45.4.88.8,1.32,1.21.43.4.87.81,1.29,1.22.43.42.86.83,1.28,1.25.43.42.85.84,1.26,1.26.84.85,1.66,1.72,2.46,2.59.28.31.57.62.85.93.19.21.38.42.57.64.38.43.76.86,1.14,1.29.03.04.06.07.09.1,0,0,.01.02.02.03.29.34.58.68.87,1.03.39.46.76.91,1.14,1.38.36.43.7.87,1.05,1.32.28.36.56.71.83,1.08.28.36.55.72.82,1.08,1.26,1.69,2.48,3.42,3.65,5.17.34.49.66.99.99,1.5.33.52.66,1.04.99,1.56.17.28.34.57.52.86.02.04.05.08.07.13.1.17.21.34.31.52.11.18.22.36.32.54.01.03.04.06.05.09.26.43.52.87.76,1.32.22.37.43.74.64,1.12,0,0,0,.02.01.03.29.52.58,1.05.86,1.58.05.1.1.2.16.3Z" fill="#ada783"/><path d="M104.83,203.42l-12.26,12.26c-.07-.03-.14-.07-.21-.1-.19-.1-.37-.2-.55-.3-.03-.01-.07-.04-.1-.05-.04-.02-.08-.04-.12-.07-.18-.1-.34-.19-.52-.28-.17-.09-.34-.19-.52-.28-1.04-.58-2.07-1.17-3.09-1.79-.51-.3-1.02-.61-1.52-.93-.58-.36-1.14-.72-1.71-1.08s-1.13-.74-1.69-1.11c-.85-.56-1.69-1.14-2.52-1.73-.73-.52-1.45-1.04-2.16-1.58-.61-.46-1.23-.92-1.82-1.39-.15-.12-.31-.24-.46-.36-.57-.44-1.13-.89-1.68-1.35-.39-.32-.78-.64-1.16-.96-.21-.17-.42-.35-.62-.52-.25-.22-.51-.43-.76-.65-.56-.49-1.11-.98-1.67-1.48-.04-.03-.07-.07-.11-.1s-.07-.07-.11-.1c-.61-.55-1.22-1.12-1.82-1.69-.62-.59-1.24-1.19-1.85-1.79-.07-.07-.15-.15-.22-.22-.58-.58-1.14-1.16-1.7-1.74-.04-.04-.07-.07-.1-.1-.58-.61-1.15-1.22-1.72-1.84-.55-.61-1.1-1.21-1.64-1.82-.46-.53-.93-1.07-1.38-1.62-.25-.29-.5-.59-.75-.89-.4-.47-.79-.95-1.17-1.44-.19-.23-.37-.46-.56-.7-.4-.51-.8-1.02-1.19-1.53-.03-.04-.06-.09-.1-.13-.4-.53-.8-1.07-1.19-1.61-.25-.34-.51-.7-.76-1.04-.01-.02-.03-.04-.04-.06-.43-.61-.86-1.22-1.28-1.83-.31-.46-.62-.92-.93-1.38-.06-.1-.12-.19-.18-.28-.06-.08-.12-.17-.17-.25-.04-.06-.08-.12-.13-.19l14.03-14.03,40.19,40.19Z" fill="#ada783"/><path d="M240.07,177.89c-.04.07-.08.13-.13.2-.07.1-.13.21-.2.31-.37.56-.76,1.11-1.13,1.67-.12.17-.24.34-.36.51-.32.46-.65.92-.98,1.38-.19.25-.37.5-.55.76-.38.52-.76,1.03-1.16,1.54-.14.19-.29.38-.44.58-.28.37-.57.74-.86,1.1-.06.07-.12.14-.18.22-.03.04-.06.08-.1.13-.13.16-.25.32-.38.48-.4.51-.82,1.01-1.23,1.5-.13.15-.25.3-.37.45-.44.52-.87,1.02-1.32,1.53-.02.02-.04.04-.06.07-.11.13-.23.26-.34.39-.01.01-.02.03-.04.04-.32.37-.64.73-.98,1.08-.1.12-.22.25-.33.37-.57.61-1.14,1.22-1.71,1.82-.34.36-.7.72-1.05,1.08-.39.4-.78.79-1.17,1.17-1.18,1.16-2.39,2.3-3.61,3.4-.17.16-.34.31-.52.46-.46.41-.91.81-1.38,1.21-.19.16-.4.34-.6.51-.53.46-1.07.9-1.61,1.35-.56.46-1.13.91-1.7,1.37-.18.14-.36.28-.55.43-.58.45-1.17.9-1.75,1.34-.11.08-.22.16-.33.24-.63.47-1.26.93-1.91,1.39-2.2,1.56-4.46,3.05-6.77,4.46-.43.26-.85.52-1.29.77-.04.03-.1.06-.14.08-.04.03-.09.05-.13.08-.49.28-.98.58-1.48.85-.56.32-1.13.64-1.7.94s-1.14.61-1.71.9l-12.61-12.61,40.19-40.19,14.66,14.66Z" fill="#ada783"/><polygon points="185.22 123.04 104.83 123.04 145.02 82.85 185.22 123.04" fill="#fff"/><path d="M104.83,123.04H32.63s0-.04,0-.07c-.16-2.42-.23-4.85-.23-7.31v-.57l32.25-32.25,40.19,40.19Z" fill="#fff"/><polygon points="185.22 42.66 145.02 82.85 104.83 42.66 185.22 42.66" fill="#c9bd93"/><polygon points="185.22 42.66 104.83 42.66 145.02 2.46 185.22 42.66" fill="#fff"/><polygon points="185.22 203.42 104.83 203.42 145.02 163.23 185.22 203.42" fill="#fff"/><path d="M258.71,116.15c0,.19,0,.38,0,.57-.01,2.1-.09,4.18-.22,6.25,0,.02,0,.04,0,.07h-73.25l40.19-40.19,33.3,33.3Z" fill="#c9bd93"/><circle cx="144.98" cy="115.66" r="113.16" fill="none" stroke="#2c6daf" stroke-miterlimit="10" stroke-width="5"/><path d="M105.59,251.01v580.23s-56.17-19.51-105.59-68.31v-442.62c19.95-21.37,75.98-63.57,105.59-69.29Z" fill="#2c6daf"/><path d="M1147.7,521.92l-80.31,209.9-58.85-209.9h-80.75l-59.6,208.39-79.56-208.39h-244s0,0,0,0v104.68h-24.61c7.69-27.14,11.81-55.78,11.81-85.38,0-170.31-136.28-308.79-305.74-312.33-4.79,3.42-9.82,6.54-15.04,9.33-7.95,4.26-16.35,7.77-25.13,10.43v603.19c8.28.89,16.67,1.44,25.13,1.67,2.78.07,5.57.11,8.37.11,4.76,0,9.5-.1,14.21-.32,7.57-.34,15.07-.94,22.49-1.82,40.64-4.75,78.9-17.3,113.24-36.12,8.12-4.45,16.02-9.25,23.67-14.39,36.5-24.44,67.57-56.39,90.99-93.62h60.6v146.26h80.75v-146.26h119.09l-36.65-80.75h-82.45v-23.93h119.15l91.45,250.94h0s80.75,0,80.75,0h0s0,0,0,0h0s51.42-138.62,51.42-138.62l51.42,138.63h80.76l128.11-331.7h-80.75ZM394.22,701.95h0c-7.15,7.78-14.81,15.07-22.93,21.83-29.6,24.66-65.3,42.25-104.5,50.17v-465.48c108.46,21.95,190.11,117.81,190.11,232.74,0,62-23.76,118.45-62.67,160.73Z" fill="#2c6daf"/><text transform="translate(1228.46 851.59)" fill="#c9bd93" font-family="Satoshi-Black, Satoshi" font-size="444.12" font-weight="800"><tspan x="0" y="0">SC</tspan></text></g></svg>